<mxfile host="app.diagrams.net" agent="Mozilla/5.0 (Windows NT 10.0; Win64; x64) AppleWebKit/537.36 (KHTML, like Gecko) Chrome/129.0.0.0 Safari/537.36" version="24.7.17">
  <diagram name="Page-1" id="zdmLm-BiizQTY9T5irPA">
    <mxGraphModel dx="1943" dy="492" grid="1" gridSize="10" guides="1" tooltips="1" connect="1" arrows="1" fold="1" page="1" pageScale="1" pageWidth="827" pageHeight="1169" math="0" shadow="0">
      <root>
        <mxCell id="0" />
        <mxCell id="1" parent="0" />
        <mxCell id="TfG2p1Fr-mnSr8GNKwj0-1" value="Student" style="rounded=1;whiteSpace=wrap;html=1;" vertex="1" parent="1">
          <mxGeometry x="-120" y="270" width="120" height="60" as="geometry" />
        </mxCell>
        <mxCell id="TfG2p1Fr-mnSr8GNKwj0-2" value="Vendor" style="rounded=1;whiteSpace=wrap;html=1;" vertex="1" parent="1">
          <mxGeometry x="440" y="270" width="120" height="60" as="geometry" />
        </mxCell>
        <mxCell id="TfG2p1Fr-mnSr8GNKwj0-3" value="Upload Documents" style="ellipse;whiteSpace=wrap;html=1;aspect=fixed;" vertex="1" parent="1">
          <mxGeometry x="90" y="160" width="80" height="80" as="geometry" />
        </mxCell>
        <mxCell id="TfG2p1Fr-mnSr8GNKwj0-5" value="Cloudinary Database" style="shape=partialRectangle;whiteSpace=wrap;html=1;left=0;right=0;fillColor=none;" vertex="1" parent="1">
          <mxGeometry x="130" y="290" width="120" height="60" as="geometry" />
        </mxCell>
        <mxCell id="TfG2p1Fr-mnSr8GNKwj0-6" value="" style="endArrow=classic;html=1;rounded=0;exitX=1.003;exitY=0.384;exitDx=0;exitDy=0;exitPerimeter=0;entryX=0;entryY=0.625;entryDx=0;entryDy=0;entryPerimeter=0;" edge="1" parent="1" source="TfG2p1Fr-mnSr8GNKwj0-1" target="TfG2p1Fr-mnSr8GNKwj0-3">
          <mxGeometry width="50" height="50" relative="1" as="geometry">
            <mxPoint x="230" y="250" as="sourcePoint" />
            <mxPoint x="280" y="200" as="targetPoint" />
            <Array as="points">
              <mxPoint x="60" y="293" />
              <mxPoint x="60" y="210" />
            </Array>
          </mxGeometry>
        </mxCell>
        <mxCell id="TfG2p1Fr-mnSr8GNKwj0-7" value="" style="endArrow=classic;html=1;rounded=0;entryX=0.667;entryY=0;entryDx=0;entryDy=0;entryPerimeter=0;" edge="1" parent="1" source="TfG2p1Fr-mnSr8GNKwj0-3" target="TfG2p1Fr-mnSr8GNKwj0-5">
          <mxGeometry width="50" height="50" relative="1" as="geometry">
            <mxPoint x="230" y="250" as="sourcePoint" />
            <mxPoint x="270" y="200" as="targetPoint" />
            <Array as="points">
              <mxPoint x="210" y="200" />
            </Array>
          </mxGeometry>
        </mxCell>
        <mxCell id="TfG2p1Fr-mnSr8GNKwj0-8" value="Docs" style="text;html=1;align=center;verticalAlign=middle;whiteSpace=wrap;rounded=0;" vertex="1" parent="1">
          <mxGeometry x="10" y="270" width="50" height="20" as="geometry" />
        </mxCell>
        <mxCell id="TfG2p1Fr-mnSr8GNKwj0-9" value="Receives Documents" style="ellipse;whiteSpace=wrap;html=1;aspect=fixed;" vertex="1" parent="1">
          <mxGeometry x="290" y="260" width="80" height="80" as="geometry" />
        </mxCell>
        <mxCell id="TfG2p1Fr-mnSr8GNKwj0-10" value="" style="endArrow=classic;html=1;rounded=0;exitX=0.5;exitY=1;exitDx=0;exitDy=0;entryX=0.5;entryY=1;entryDx=0;entryDy=0;" edge="1" parent="1" source="TfG2p1Fr-mnSr8GNKwj0-5" target="TfG2p1Fr-mnSr8GNKwj0-9">
          <mxGeometry width="50" height="50" relative="1" as="geometry">
            <mxPoint x="230" y="250" as="sourcePoint" />
            <mxPoint x="280" y="200" as="targetPoint" />
            <Array as="points">
              <mxPoint x="190" y="410" />
              <mxPoint x="330" y="410" />
            </Array>
          </mxGeometry>
        </mxCell>
        <mxCell id="TfG2p1Fr-mnSr8GNKwj0-11" value="Send to Cloud" style="text;html=1;align=center;verticalAlign=middle;whiteSpace=wrap;rounded=0;" vertex="1" parent="1">
          <mxGeometry x="210" y="230" width="50" height="20" as="geometry" />
        </mxCell>
        <mxCell id="TfG2p1Fr-mnSr8GNKwj0-12" value="Delete after printing or 24hrs" style="ellipse;whiteSpace=wrap;html=1;aspect=fixed;" vertex="1" parent="1">
          <mxGeometry x="40" y="330" width="80" height="80" as="geometry" />
        </mxCell>
        <mxCell id="TfG2p1Fr-mnSr8GNKwj0-13" value="" style="endArrow=classic;html=1;rounded=0;exitX=1;exitY=0.5;exitDx=0;exitDy=0;entryX=0.083;entryY=1;entryDx=0;entryDy=0;entryPerimeter=0;" edge="1" parent="1" source="TfG2p1Fr-mnSr8GNKwj0-12" target="TfG2p1Fr-mnSr8GNKwj0-5">
          <mxGeometry width="50" height="50" relative="1" as="geometry">
            <mxPoint x="220" y="350" as="sourcePoint" />
            <mxPoint x="170" y="370" as="targetPoint" />
            <Array as="points">
              <mxPoint x="140" y="370" />
            </Array>
          </mxGeometry>
        </mxCell>
        <mxCell id="TfG2p1Fr-mnSr8GNKwj0-15" value="" style="endArrow=classic;html=1;rounded=0;exitX=0.131;exitY=-0.01;exitDx=0;exitDy=0;exitPerimeter=0;" edge="1" parent="1" source="TfG2p1Fr-mnSr8GNKwj0-5" target="TfG2p1Fr-mnSr8GNKwj0-12">
          <mxGeometry width="50" height="50" relative="1" as="geometry">
            <mxPoint x="220" y="350" as="sourcePoint" />
            <mxPoint x="270" y="300" as="targetPoint" />
            <Array as="points">
              <mxPoint x="146" y="260" />
              <mxPoint x="80" y="260" />
            </Array>
          </mxGeometry>
        </mxCell>
        <mxCell id="TfG2p1Fr-mnSr8GNKwj0-16" value="" style="endArrow=classic;html=1;rounded=0;exitX=1;exitY=0.5;exitDx=0;exitDy=0;entryX=0;entryY=0.5;entryDx=0;entryDy=0;" edge="1" parent="1" source="TfG2p1Fr-mnSr8GNKwj0-9" target="TfG2p1Fr-mnSr8GNKwj0-2">
          <mxGeometry width="50" height="50" relative="1" as="geometry">
            <mxPoint x="220" y="350" as="sourcePoint" />
            <mxPoint x="270" y="300" as="targetPoint" />
          </mxGeometry>
        </mxCell>
        <mxCell id="TfG2p1Fr-mnSr8GNKwj0-17" value="Delete" style="text;html=1;align=center;verticalAlign=middle;whiteSpace=wrap;rounded=0;" vertex="1" parent="1">
          <mxGeometry x="120" y="370" width="50" height="20" as="geometry" />
        </mxCell>
        <mxCell id="TfG2p1Fr-mnSr8GNKwj0-19" value="Fetches Student&#39; s doc" style="text;html=1;align=center;verticalAlign=middle;whiteSpace=wrap;rounded=0;" vertex="1" parent="1">
          <mxGeometry x="200" y="400" width="110" height="20" as="geometry" />
        </mxCell>
        <mxCell id="TfG2p1Fr-mnSr8GNKwj0-20" value="Send for Printing" style="text;html=1;align=center;verticalAlign=middle;whiteSpace=wrap;rounded=0;" vertex="1" parent="1">
          <mxGeometry x="370" y="290" width="50" height="20" as="geometry" />
        </mxCell>
        <mxCell id="TfG2p1Fr-mnSr8GNKwj0-22" value="Checks Payment Status" style="text;html=1;align=center;verticalAlign=middle;whiteSpace=wrap;rounded=0;" vertex="1" parent="1">
          <mxGeometry x="70" y="105" width="60" height="30" as="geometry" />
        </mxCell>
        <mxCell id="TfG2p1Fr-mnSr8GNKwj0-23" value="Transaction Database" style="shape=partialRectangle;whiteSpace=wrap;html=1;left=0;right=0;fillColor=none;" vertex="1" parent="1">
          <mxGeometry x="170" y="105" width="90" height="40" as="geometry" />
        </mxCell>
        <mxCell id="TfG2p1Fr-mnSr8GNKwj0-40" style="edgeStyle=orthogonalEdgeStyle;rounded=0;orthogonalLoop=1;jettySize=auto;html=1;entryX=0.356;entryY=-0.017;entryDx=0;entryDy=0;entryPerimeter=0;" edge="1" parent="1" source="TfG2p1Fr-mnSr8GNKwj0-3" target="TfG2p1Fr-mnSr8GNKwj0-23">
          <mxGeometry relative="1" as="geometry" />
        </mxCell>
      </root>
    </mxGraphModel>
  </diagram>
</mxfile>
